HIERARCHY
ROOT RootJoint
{
    OFFSET   0.000000   0.000000   0.000000
    CHANNELS 6 Xposition Yposition Zposition Xrotation Yrotation Zrotation
    JOINT pelvis_lowerback
    {
        OFFSET   0.000000   0.093605   0.000000
        CHANNELS 3 Xrotation Yrotation Zrotation
        JOINT lowerback_torso
        {
            OFFSET   0.000000   0.100000   0.000000
            CHANNELS 3 Xrotation Yrotation Zrotation
            JOINT torso_head
            {
                OFFSET   0.000000   0.282350   0.000000
                CHANNELS 3 Xrotation Yrotation Zrotation
                End Site
                {
                    OFFSET   0.000000   0.192650   0.000000
                }
            }
            JOINT rTorso_Clavicle
            {
                OFFSET  -0.001000   0.157500   0.000000
                CHANNELS 3 Xrotation Yrotation Zrotation
                JOINT rShoulder
                {
                    OFFSET  -0.117647   0.000000   0.000000
                    CHANNELS 3 Xrotation Yrotation Zrotation
                    JOINT rElbow
                    {
                        OFFSET  -0.245000   0.000000   0.000000
                        CHANNELS 3 Xrotation Yrotation Zrotation
                        JOINT rWrist
                        {
                            OFFSET  -0.240000   0.000000   0.000000
                            CHANNELS 3 Xrotation Yrotation Zrotation
                            End Site
                            {
                                OFFSET  -0.116353  -0.002500   0.000000
                            }
                        }
                    }
                }
            }
            JOINT lTorso_Clavicle
            {
                OFFSET   0.001000   0.157500   0.000000
                CHANNELS 3 Xrotation Yrotation Zrotation
                JOINT lShoulder
                {
                    OFFSET   0.117647   0.000000   0.000000
                    CHANNELS 3 Xrotation Yrotation Zrotation
                    JOINT lElbow
                    {
                        OFFSET   0.245000   0.000000   0.000000
                        CHANNELS 3 Xrotation Yrotation Zrotation
                        JOINT lWrist
                        {
                            OFFSET   0.240000   0.000000   0.000000
                            CHANNELS 3 Xrotation Yrotation Zrotation
                            End Site
                            {
                                OFFSET   0.116353  -0.002500   0.000000
                            }
                        }
                    }
                }
            }
        }
    }
    JOINT rHip
    {
        OFFSET  -0.100000  -0.051395   0.000000
        CHANNELS 3 Xrotation Yrotation Zrotation
        JOINT rKnee
        {
            OFFSET   0.000000  -0.410000   0.000000
            CHANNELS 3 Xrotation Yrotation Zrotation
            JOINT rAnkle
            {
                OFFSET   0.000000  -0.390000   0.000000
                CHANNELS 3 Xrotation Yrotation Zrotation
                JOINT rToeJoint
                {
                    OFFSET   0.000000  -0.050000   0.130000
                    CHANNELS 3 Xrotation Yrotation Zrotation
                    End Site
                    {
                        OFFSET  -0.010000   0.002000   0.060000
                    }
                }
            }
        }
    }
    JOINT lHip
    {
        OFFSET   0.100000  -0.051395   0.000000
        CHANNELS 3 Xrotation Yrotation Zrotation
        JOINT lKnee
        {
            OFFSET   0.000000  -0.410000   0.000000
            CHANNELS 3 Xrotation Yrotation Zrotation
            JOINT lAnkle
            {
                OFFSET   0.000000  -0.390000   0.000000
                CHANNELS 3 Xrotation Yrotation Zrotation
                JOINT lToeJoint
                {
                    OFFSET   0.000000  -0.050000   0.130000
                    CHANNELS 3 Xrotation Yrotation Zrotation
                    End Site
                    {
                        OFFSET   0.010000   0.002000   0.060000
                    }
                }
            }
        }
    }
}
MOTION
Frames: 7
Frame Time:   0.008333
 -2.353263   0.902106   3.953640  -6.342899  -7.439400  -2.256102  17.079320   1.625482   1.352090   0.864418  -0.858853   0.850027  -7.167264  -0.882525   0.654562  -0.737678   5.444127  -5.858663   8.700215  13.166695  48.408213  -0.001063  31.656068   0.001059   5.296468   2.291177  -0.646308   2.765994  -6.231051   5.313431   7.512990 -12.781117 -47.079585  -0.000792 -34.433121  -0.000111   2.717175  -5.266925   1.175722 -19.834225  -5.734941  -5.586226  50.682687   0.000071   0.019246  -7.741166  -7.148179   4.950551  -2.585456  -0.006540  -0.004604 -21.953531   4.806564   6.087969  54.777846  -0.001522   0.002459  11.800859   8.321650   0.548729 -46.146620  -0.008292   0.000263
 -2.354118   0.916681   3.955645  -6.207807  -7.631898  -3.886779  15.809124   1.933042   3.234917   1.153953  -0.953491   0.960419  -6.499257  -0.941280   0.111443   0.151068   5.424973  -7.290050   8.858837  13.403690  49.031453  -0.001024  31.780620   0.000748   5.289774   2.246165  -0.389283   3.417900  -5.576141   5.984176   8.206058 -12.857571 -48.068050   0.000198 -34.811150   0.001044   2.775848  -5.573639   1.084544 -18.658212  -6.450999  -3.717873  50.018498   0.001392   0.015801  -6.511101  -7.383514   5.519303  -1.978629  -0.008362  -0.006385 -20.889595   4.662416   7.831650  51.839606  -0.000058  -0.005042  14.839788   8.209327  -0.065650 -45.917345  -0.006266   0.001049
 -2.355093   0.931559   3.957907  -6.072172  -7.901599  -5.595556  14.485882   2.211156   5.187364   1.394263  -0.996224   1.196429  -5.866156  -1.006352  -0.388700   1.015786   5.324363  -8.724589   9.056770  13.584456  49.561391  -0.001035  31.882654   0.000682   5.297579   2.166203  -0.077025   4.109220  -4.821899   6.637950   8.952663 -12.878622 -49.015986   0.000262 -35.147447   0.001314   2.841909  -5.890585   0.801487 -17.507548  -7.186266  -1.671025  49.670080   0.002265   0.012998  -5.363739  -7.588535   6.057895  -1.501024  -0.009505  -0.007471 -19.705994   4.515658   9.630668  48.669603   0.004119  -0.008067  18.035070   8.130380  -0.652252 -45.733912  -0.004827   0.001291
 -2.356056   0.946461   3.960285  -5.902332  -8.233133  -7.259334  13.122582   2.446101   7.110757   1.564149  -1.002064   1.491336  -5.281113  -1.073353  -0.839836   1.839193   5.158318 -10.117670   9.274577  13.719678  50.023541  -0.001046  31.964441   0.000719   5.305029   2.023994   0.203626   4.790788  -4.020135   7.288397   9.711306 -12.856700 -49.882442  -0.000353 -35.438593   0.000912   2.903337  -6.100288   0.483022 -16.397097  -7.876498   0.385659  49.447287   0.002702   0.010733  -4.288196  -7.768449   6.565772  -1.071157  -0.010280  -0.008262 -18.447747   4.397530  11.361432  45.267669   0.010142  -0.006453  21.446096   8.053043  -1.213953 -45.587160  -0.003769   0.001189
 -2.356958   0.961085   3.962689  -5.689398  -8.608184  -8.858338  11.736454   2.631143   8.990785   1.661851  -0.982755   1.825456  -4.742226  -1.140166  -1.251045   2.614109   4.949293 -11.463306   9.500160  13.822672  50.427717  -0.001048  32.032177   0.000787   5.312025   1.838505   0.444229   5.441673  -3.202029   7.945233  10.460386 -12.805979 -50.661340  -0.001333 -35.694639   0.000157   2.960256  -6.216861   0.194755 -15.334069  -8.509148   2.404419  49.288129   0.002853   0.008893  -3.281642  -7.926841   7.043608  -0.682269  -0.010682  -0.008771 -17.150274   4.319661  13.011080  41.672974   0.016777  -0.001100  25.052787   7.964496  -1.753436 -45.469753  -0.002976   0.000938
 -2.357768   0.975331   3.965000  -5.440919  -9.003030 -10.364521  10.363292   2.761055  10.799617   1.698351  -0.950587   2.182891  -4.248126  -1.206031  -1.627969   3.335602   4.718215 -12.746890   9.721908  13.905105  50.784538  -0.001030  32.090204   0.000844   5.318706   1.627988   0.639765   6.047970  -2.394558   8.604125  11.182959 -12.738179 -51.352902  -0.002407 -35.922694  -0.000708   3.013716  -6.264956  -0.027737 -14.318037  -9.078719   4.340958  49.163631   0.002842   0.007392  -2.340142  -8.066696   7.492521  -0.328050  -0.010765  -0.009018 -15.867552   4.283304  14.558891  37.989413   0.022731   0.006632  28.712280   7.852775  -2.280338 -44.526599  -0.002084  -0.000061
 -2.358476   0.989117   3.967154  -5.164021  -9.406988 -11.772645   9.023006   2.839288  12.530563   1.688330  -0.911288   2.553525  -3.793970  -1.270274  -1.975255   4.003384   4.478829 -13.962888   9.933283  13.975150  51.103013  -0.000992  32.142167   0.000882   5.325249   1.409835   0.797545   6.605411  -1.612976   9.258063  11.870104 -12.662084 -51.966545  -0.003415 -36.129076  -0.001544   3.064401  -6.270087  -0.179640 -13.348798  -9.586200   6.182232  49.061645   0.002735   0.006162  -1.459920  -8.190387   7.913823  -0.005213  -0.010597  -0.009039 -14.620743   4.287287  16.005431  34.250321   0.027415   0.015635  32.419141   7.713330  -2.793505 -42.653037  -0.001209  -0.002881
